<?xml version="1.0" encoding="utf-8"?>
<!-- Generator: Adobe Illustrator 15.0.2, SVG Export Plug-In . SVG Version: 6.00 Build 0)  -->
<!DOCTYPE svg PUBLIC "-//W3C//DTD SVG 1.1//EN" "http://www.w3.org/Graphics/SVG/1.1/DTD/svg11.dtd">
<svg version="1.1" id="wraper" xmlns="http://www.w3.org/2000/svg" xmlns:xlink="http://www.w3.org/1999/xlink" x="0px" y="0px"
	 width="70.5px" height="121.93px" viewBox="5.5 43.56 70.5 121.93" enable-background="new 5.5 43.56 70.5 121.93"
	 xml:space="preserve">
<rect id="wrapper" x="-0.25" y="37" fill="#FFFFFF" width="157.25" height="134.25"/>
<g id="beneden_verdieping">
	<rect x="8.12" y="70.72" fill="#CCCCCC" width="8.12" height="36.31"/>
	<g>
		<line fill="none" stroke="#CCCCCC" stroke-width="0.25" stroke-miterlimit="10" x1="20.27" y1="131.28" x2="20.27" y2="141.38"/>
		<line fill="none" stroke="#CCCCCC" stroke-width="0.25" stroke-miterlimit="10" x1="18.27" y1="131.12" x2="18.27" y2="141.23"/>
		<line fill="none" stroke="#CCCCCC" stroke-width="0.25" stroke-miterlimit="10" x1="17.54" y1="131.48" x2="15.56" y2="141.38"/>
		<line fill="none" stroke="#CCCCCC" stroke-width="0.25" stroke-miterlimit="10" x1="17.54" y1="131.28" x2="11.85" y2="141.38"/>
		<line fill="none" stroke="#CCCCCC" stroke-width="0.25" stroke-miterlimit="10" x1="17.54" y1="131.12" x2="8.4" y2="139.81"/>
		<line fill="none" stroke="#CCCCCC" stroke-width="0.25" stroke-miterlimit="10" x1="17.54" y1="130.84" x2="8.39" y2="135.23"/>
		<line fill="none" stroke="#CCCCCC" stroke-width="0.25" stroke-miterlimit="10" x1="17.54" y1="130.46" x2="8.39" y2="132"/>
		<line fill="none" stroke="#CCCCCC" stroke-width="0.25" stroke-miterlimit="10" x1="17.64" y1="129.09" x2="8.39" y2="129.53"/>
		<line fill="none" stroke="#CCCCCC" stroke-width="0.25" stroke-miterlimit="10" x1="17.73" y1="127.17" x2="8.39" y2="127.17"/>
		<line fill="none" stroke="#CCCCCC" stroke-width="0.25" stroke-miterlimit="10" x1="17.73" y1="125.03" x2="8.39" y2="125.03"/>
		<line fill="none" stroke="#CCCCCC" stroke-width="0.25" stroke-miterlimit="10" x1="17.73" y1="122.88" x2="8.39" y2="122.88"/>
		<line fill="none" stroke="#CCCCCC" stroke-width="0.25" stroke-miterlimit="10" x1="17.73" y1="120.69" x2="8.39" y2="120.69"/>
		<line fill="none" stroke="#CCCCCC" stroke-width="0.25" stroke-miterlimit="10" x1="17.73" y1="118.78" x2="8.39" y2="118.78"/>
		<line fill="none" stroke="#CCCCCC" stroke-width="0.25" stroke-miterlimit="10" x1="17.73" y1="116.61" x2="8.39" y2="116.61"/>
	</g>
	<rect x="25.38" y="76.44" fill="#CCCCCC" width="10.12" height="24.88"/>
	<rect x="8.12" y="143.37" fill="#CCCCCC" width="2.5" height="6.13"/>
	<polygon fill="#F0F0F0" stroke="#666666" stroke-miterlimit="10" points="6,164.99 24.75,164.99 24.75,162.94 8.12,162.94 
		8.12,107.32 6,107.32 	"/>
	<polygon fill="#F0F0F0" stroke="#666666" stroke-miterlimit="10" points="6,91.19 8,91.19 8,53.69 9.88,53.69 9.88,51.32 6,51.32 	
		"/>
	<polygon fill="#F0F0F0" stroke="#B9B9B9" stroke-miterlimit="10" points="36,51.32 45.38,51.32 36,51.32 45.38,51.32 	"/>
	<rect x="36" y="51.32" fill="#F0F0F0" stroke="#666666" stroke-miterlimit="10" width="9.38" height="2.25"/>
	<polygon fill="#F0F0F0" stroke="#666666" stroke-miterlimit="10" points="75.5,144.19 73.5,144.19 73.5,53.69 71.62,53.69 
		71.62,51.32 75.5,51.32 	"/>
	<polygon fill="#F0F0F0" stroke="#666666" stroke-miterlimit="10" points="73.56,160.57 75.5,160.57 75.5,164.99 68,164.99 
		68,162.78 73.56,162.78 	"/>
	<rect x="33.62" y="162.78" fill="#F0F0F0" stroke="#666666" stroke-miterlimit="10" width="8.12" height="2.21"/>
	<line fill="#F0F0F0" stroke="#666666" stroke-miterlimit="10" x1="9.88" y1="52.44" x2="36" y2="52.44"/>
	<line fill="#F0F0F0" stroke="#666666" stroke-miterlimit="10" x1="45.38" y1="52.44" x2="71.62" y2="52.44"/>
	<line fill="#F0F0F0" stroke="#666666" stroke-miterlimit="10" x1="6.88" y1="91.19" x2="6.88" y2="107.32"/>
	<line fill="#F0F0F0" stroke="#666666" stroke-miterlimit="10" x1="24.75" y1="163.88" x2="33.62" y2="163.88"/>
	<line fill="#F0F0F0" stroke="#666666" stroke-miterlimit="10" x1="41.75" y1="163.88" x2="68" y2="163.88"/>
	<polyline fill="none" stroke="#666666" stroke-miterlimit="10" points="20.38,149.5 20.38,151.44 8.12,151.44 	"/>
	<polyline fill="none" stroke="#666666" stroke-miterlimit="10" points="8.12,141.69 20.38,141.69 20.38,142.91 	"/>
	<polyline fill="none" stroke="#666666" stroke-miterlimit="10" points="20.38,131.03 18,131.03 18,115.28 34.92,115.28 
		34.92,116.91 	"/>
	<line fill="#F0F0F0" stroke="#666666" stroke-miterlimit="10" x1="11.75" y1="151.44" x2="11.75" y2="154.17"/>
	<line fill="#F0F0F0" stroke="#666666" stroke-miterlimit="10" x1="11.75" y1="161.06" x2="11.75" y2="162.94"/>
	<line fill="none" stroke="#666666" stroke-miterlimit="10" x1="34.92" y1="162.78" x2="34.92" y2="123.78"/>
	<line fill="none" stroke="#666666" stroke-miterlimit="10" x1="74.5" y1="144.19" x2="74.5" y2="160.57"/>
	<line fill="none" stroke="#666666" stroke-miterlimit="10" x1="18" y1="115.28" x2="8.12" y2="115.28"/>
	<ellipse fill="#CCCCCC" cx="13.42" cy="146.43" rx="3.38" ry="2.37"/>
	<circle fill="#999999" cx="27.69" cy="87.62" r="1.12"/>
	<circle fill="#999999" cx="27.69" cy="90.31" r="0.88"/>
	<circle fill="#999999" cx="30.25" cy="90" r="1.19"/>
	<circle fill="#999999" cx="30.25" cy="87.38" r="0.88"/>
	<line fill="none" stroke="#666666" stroke-miterlimit="10" x1="15.06" y1="52.44" x2="15.06" y2="43.69"/>
	<path fill="none" stroke="#666666" stroke-width="0.5" stroke-miterlimit="10" d="M15.06,43.69c0,0,7.75,0.56,7.88,8.19"/>
	<line fill="none" stroke="#666666" stroke-miterlimit="10" x1="30.81" y1="52.44" x2="30.81" y2="43.69"/>
	<path fill="none" stroke="#666666" stroke-width="0.5" stroke-miterlimit="10" d="M30.81,43.69c0,0-7.75,0.56-7.88,8.19"/>
	<line fill="none" stroke="#666666" stroke-miterlimit="10" x1="66.76" y1="52.44" x2="66.76" y2="43.69"/>
	<path fill="none" stroke="#666666" stroke-width="0.5" stroke-miterlimit="10" d="M66.76,43.69c0,0-7.75,0.56-7.88,8.19"/>
	<line fill="none" stroke="#666666" stroke-miterlimit="10" x1="51.01" y1="52.44" x2="51.01" y2="43.69"/>
	<path fill="none" stroke="#666666" stroke-width="0.5" stroke-miterlimit="10" d="M51.01,43.69c0,0,7.75,0.56,7.88,8.19"/>
	<line fill="none" stroke="#666666" stroke-miterlimit="10" x1="33" y1="163.46" x2="33" y2="154.71"/>
	<path fill="none" stroke="#666666" stroke-width="0.5" stroke-miterlimit="10" d="M33,154.71c0,0-7.75,0.56-7.88,8.19"/>
	<path fill="none" stroke="#666666" stroke-width="0.5" stroke-miterlimit="10" d="M20.38,143v6.5l4.38-5.25
		C24.75,144.25,23.83,143,20.38,143z"/>
	<path fill="none" stroke="#666666" stroke-width="0.5" stroke-miterlimit="10" d="M11.75,154.29v6.5l4.38-5.25
		C16.12,155.54,15.21,154.29,11.75,154.29z"/>
	<path fill="none" stroke="#666666" stroke-width="0.5" stroke-miterlimit="10" d="M34.92,117.02v6.5l4.38-5.25
		C39.29,118.27,38.38,117.02,34.92,117.02z"/>
	<g id="light_hue_color_lamp_1">
		<circle id="light.hue_color_lamp_1" fill="#FFFFFF" cx="42.69" cy="155.14" r="5.7"/>
		<g id="icon">
			<path fill="#666666" d="M42.69,153.19c0.79,0,1.42,0.64,1.42,1.42c0,0.49-0.24,0.91-0.61,1.17v0.46c0,0.11-0.09,0.2-0.2,0.2
				h-1.22c-0.11,0-0.2-0.09-0.2-0.2v-0.46c-0.37-0.26-0.61-0.68-0.61-1.17C41.26,153.83,41.9,153.19,42.69,153.19 M42.08,157.06
				v-0.2h1.22v0.2c0,0.11-0.09,0.2-0.2,0.2h-0.81C42.17,157.26,42.08,157.17,42.08,157.06 M42.69,153.6c-0.56,0-1.02,0.46-1.02,1.02
				c0,0.42,0.25,0.78,0.61,0.93v0.49h0.81v-0.49c0.36-0.16,0.61-0.52,0.61-0.93C43.71,154.06,43.25,153.6,42.69,153.6z"/>
		</g>
	</g>
</g>
<g id="eerste_verdieping">
	<polyline fill="none" stroke="#999999" stroke-width="0.5" stroke-miterlimit="10" points="81.25,85.25 81.25,52.44 151.08,52.44 
		151.08,85.25 	"/>
	<rect x="90.81" y="154.71" fill="#CCCCCC" width="19.44" height="8.15"/>
	<rect x="108.08" y="147.4" fill="#CCCCCC" width="2.5" height="6.13"/>
	<ellipse fill="#CCCCCC" cx="105.29" cy="150.47" rx="3.37" ry="2.37"/>
	<rect x="83.69" y="147" fill="#CCCCCC" width="5.88" height="7.19"/>
	<polygon fill="#F0F0F0" stroke="#666666" stroke-miterlimit="10" points="81.25,164.99 81.25,85.25 88.88,85.25 88.88,87.38 
		83.25,87.38 83.25,162.89 86.12,162.89 86.12,164.99 	"/>
	<rect x="104.83" y="85.25" fill="#F0F0F0" stroke="#666666" stroke-miterlimit="10" width="12.83" height="2.17"/>
	<polygon fill="#F0F0F0" stroke="#666666" stroke-miterlimit="10" points="143.83,85.25 151.08,85.25 151.08,164.99 143.83,164.99 
		143.83,162.78 148.75,162.78 148.75,87.42 143.83,87.42 	"/>
	<rect x="106.25" y="162.78" fill="#F0F0F0" stroke="#666666" stroke-miterlimit="10" width="11.5" height="2.21"/>
	<polyline fill="none" stroke="#666666" stroke-miterlimit="10" points="83.25,134.42 99.83,134.42 99.83,144.19 	"/>
	<polyline fill="none" stroke="#666666" stroke-miterlimit="10" points="110.5,162.78 110.5,141 108.43,141 	"/>
	<polyline fill="none" stroke="#666666" stroke-miterlimit="10" points="148.75,130.92 110.5,130.92 110.5,125.12 110.5,123.28 	"/>
	<polyline fill="none" stroke="#666666" stroke-miterlimit="10" points="83.25,114.83 100.42,114.83 101.93,114.83 	"/>
	<polyline fill="none" stroke="#666666" stroke-miterlimit="10" points="110.5,87.42 110.5,114.83 110.5,116.51 	"/>
	<line fill="none" stroke="#666666" stroke-miterlimit="10" x1="86.12" y1="163.88" x2="106.25" y2="163.88"/>
	<line fill="none" stroke="#666666" stroke-miterlimit="10" x1="117.75" y1="163.88" x2="143.83" y2="163.88"/>
	<line fill="none" stroke="#666666" stroke-miterlimit="10" x1="117.67" y1="86.33" x2="143.83" y2="86.33"/>
	<line fill="none" stroke="#666666" stroke-miterlimit="10" x1="104.17" y1="86.33" x2="88.88" y2="86.33"/>
	<line fill="none" stroke="#666666" stroke-miterlimit="10" x1="95.67" y1="87.42" x2="95.67" y2="85.25"/>
	<path fill="none" stroke="#666666" stroke-width="0.5" stroke-miterlimit="10" d="M110.5,116.51v6.5l4.38-5.25
		C114.88,117.76,113.96,116.51,110.5,116.51z"/>
	<path fill="none" stroke="#666666" stroke-width="0.5" stroke-miterlimit="10" d="M110.5,139.3v-6.5l4.38,5.25
		C114.88,138.05,113.96,139.3,110.5,139.3z"/>
	<path fill="none" stroke="#666666" stroke-width="0.5" stroke-miterlimit="10" d="M108.54,141.16h-6.5l5.25-4.38
		C107.29,136.78,108.54,137.7,108.54,141.16z"/>
	<path fill="none" stroke="#666666" stroke-width="0.5" stroke-miterlimit="10" d="M101.93,114.83h6.5l-5.25-4.38
		C103.18,110.46,101.93,111.37,101.93,114.83z"/>
	<line fill="none" stroke="#666666" stroke-miterlimit="10" x1="104.17" y1="86.84" x2="104.17" y2="78.08"/>
	<path fill="none" stroke="#666666" stroke-width="0.5" stroke-miterlimit="10" d="M104.17,78.08c0,0-7.75,0.56-7.88,8.19"/>
	<circle fill="#CCCCCC" cx="96.19" cy="139.3" r="1.56"/>
	<path fill="#999999" d="M108.67,158.78c0,1.78-1.44,3.22-3.22,3.22H94.76c-1.78,0-3.22-1.44-3.22-3.22l0,0
		c0-1.78,1.44-3.22,3.22-3.22h10.69C107.23,155.56,108.67,157,108.67,158.78L108.67,158.78z"/>
	<rect x="96.19" y="139.04" fill="#CCCCCC" width="3.15" height="0.5"/>
	<line fill="none" stroke="#666666" stroke-miterlimit="10" x1="101.72" y1="141.16" x2="99.83" y2="141.16"/>
	<line fill="none" stroke="#666666" stroke-miterlimit="10" x1="110.5" y1="130.92" x2="110.5" y2="132.53"/>
	<line fill="none" stroke="#666666" stroke-miterlimit="10" x1="110.5" y1="141" x2="110.5" y2="139.3"/>
	<line fill="none" stroke="#666666" stroke-miterlimit="10" x1="108.69" y1="114.83" x2="110.5" y2="114.83"/>
	<line fill="none" stroke="#666666" stroke-width="0.25" stroke-miterlimit="10" x1="99.33" y1="144.03" x2="83.69" y2="144.03"/>
	<line fill="#F0F0F0" stroke="#666666" stroke-width="0.5" stroke-miterlimit="10" x1="93.33" y1="134" x2="93.33" y2="115.21"/>
	<line fill="none" stroke="#CCCCCC" stroke-width="0.25" stroke-miterlimit="10" x1="93" y1="124.88" x2="89.88" y2="134"/>
	<line fill="none" stroke="#CCCCCC" stroke-width="0.25" stroke-miterlimit="10" x1="92.75" y1="124.61" x2="85.92" y2="134"/>
	<line fill="none" stroke="#CCCCCC" stroke-width="0.25" stroke-miterlimit="10" x1="92.75" y1="124.25" x2="83.69" y2="131.72"/>
	<line fill="none" stroke="#CCCCCC" stroke-width="0.25" stroke-miterlimit="10" x1="92.75" y1="123.83" x2="83.69" y2="127.99"/>
	<polyline fill="none" stroke="#CCCCCC" stroke-width="0.25" stroke-miterlimit="10" points="90.04,115.21 92.75,123.54 
		83.69,123.54 	"/>
	<line fill="none" stroke="#CCCCCC" stroke-width="0.25" stroke-miterlimit="10" x1="85.92" y1="115.21" x2="92.04" y2="123.28"/>
	<line fill="none" stroke="#CCCCCC" stroke-width="0.25" stroke-miterlimit="10" x1="83.69" y1="120.29" x2="93" y2="123.54"/>
	<line fill="none" stroke="#CCCCCC" stroke-width="0.25" stroke-miterlimit="10" x1="83.69" y1="117.38" x2="89.33" y2="122.26"/>
	<rect x="92.36" y="123.01" fill="#666666" width="0.97" height="2.11"/>
	<rect x="111.29" y="144.1" fill="none" width="36.67" height="3.67"/>
	
		<text id="sensor.sensor_kantoor__temperatuur" transform="matrix(1 0 0 1 124.7422 146.6035)" fill="#666666" font-family="'ArialMT'" font-size="3.5">20 °C.</text>
	<rect x="111.29" y="148.43" fill="none" width="36.67" height="3.67"/>
	
		<text id="sensor.sensor_kantoor__luchtvochtigheid" transform="matrix(1 0 0 1 127.123 150.2207)" fill="#666666" font-family="'ArialMT'" font-size="2.5">30%</text>
	<rect x="83.71" y="97.53" fill="none" width="26.58" height="3.67"/>
	
		<text id="sensor.sensor_slaapkamer_saar__temperatuur" transform="matrix(1 0 0 1 92.1167 100.0322)" fill="#666666" font-family="'ArialMT'" font-size="3.5">20 °C.</text>
	<rect x="83.71" y="101.86" fill="none" width="26.58" height="3.67"/>
	
		<text id="sensor.sensor_slaapkamer_saar__luchtvochtigheid" transform="matrix(1 0 0 1 94.4976 103.6494)" fill="#666666" font-family="'ArialMT'" font-size="2.5">30%</text>
</g>
</svg>
